<svg width="223" height="245" viewBox="0 0 223 245" fill="none" xmlns="http://www.w3.org/2000/svg">
<path d="M214.18 52.5654C211.38 84.7758 211.265 128.91 221.967 176.759L172.746 178.821L170.955 117.736L170.94 117.209L170.414 117.253L113.714 121.958L111.69 64.364L111.672 63.8499L111.158 63.8825L49.474 67.7978L48.0344 29.8349C48.1463 29.8423 48.2747 29.8506 48.4194 29.8597C49.0413 29.8985 49.9644 29.9507 51.172 30.0044C53.5872 30.1117 57.1402 30.225 61.6969 30.2489C70.8103 30.2967 83.9393 29.9874 100.011 28.5592C131.947 25.7213 175.51 18.4649 222.274 0.809815C222.274 0.810868 222.274 0.811922 222.274 0.812977C222.117 1.43417 221.889 2.35648 221.608 3.5637C221.046 5.97814 220.268 9.53229 219.402 14.0964C217.669 23.2246 215.586 36.3935 214.18 52.5654Z" stroke="white" stroke-opacity="0.15"/>
<path d="M58.0734 183.573C58.0874 183.504 58.102 183.43 58.1171 183.352C58.2563 182.638 58.4446 181.584 58.6431 180.218C59.0401 177.486 59.4776 173.504 59.643 168.492C59.9685 158.623 59.2388 144.758 55.065 128.575C55.2373 128.607 55.4368 128.643 55.6624 128.683C56.5579 128.84 57.8647 129.053 59.5149 129.276C62.8148 129.721 67.4896 130.205 72.9944 130.362C83.7662 130.668 97.7477 129.72 110.829 124.746C110.791 124.959 110.746 125.208 110.698 125.492C110.517 126.544 110.27 128.067 110.008 129.96C109.483 133.744 108.894 139.006 108.636 144.915C108.141 156.241 108.858 170.035 113.651 180.355C113.073 180.117 112.303 179.826 111.338 179.516C108.948 178.749 105.368 177.871 100.58 177.409C91.14 176.499 77.0169 177.209 58.0734 183.573Z" stroke="white" stroke-opacity="0.15"/>
<path d="M3.69259 244.243C3.70654 244.173 3.72112 244.1 3.73629 244.022C3.87542 243.308 4.06377 242.254 4.26226 240.888C4.65922 238.156 5.09679 234.174 5.26212 229.162C5.58764 219.293 4.85799 205.428 0.684145 189.245C0.85646 189.277 1.05596 189.313 1.28156 189.353C2.17704 189.51 3.48389 189.723 5.13403 189.946C8.43397 190.391 13.1088 190.875 18.6135 191.032C29.3853 191.338 43.3669 190.39 56.4481 185.416C56.4097 185.629 56.3656 185.878 56.3168 186.162C56.1358 187.214 55.8895 188.737 55.6271 190.63C55.1024 194.414 54.5131 199.676 54.2551 205.585C53.7606 216.911 54.4775 230.705 59.2698 241.025C58.6921 240.787 57.9217 240.496 56.9574 240.186C54.5675 239.419 50.9874 238.541 46.1992 238.079C36.7591 237.169 22.636 237.879 3.69259 244.243Z" stroke="white" stroke-opacity="0.15"/>
</svg>
