<svg width="1281" height="4913" viewBox="0 0 1281 4913" fill="none" xmlns="http://www.w3.org/2000/svg">
<path opacity="0.3" d="M55.4972 0C55.4972 49.4703 98.3253 89.5745 151.156 89.5745L1150.5 89.5792C1221.84 89.5792 1279.68 143.737 1279.68 210.543V836.699C1279.68 903.505 1175.16 957.663 1103.81 957.663H110.177C38.8341 957.663 0.999146 961.82 0.999146 1028.63V1144C0.999146 1210.81 38.8341 1220.5 110.177 1220.5H507.497H1104.82C1234 1220.5 1234 1325.25 1234 1392.05V1684.5C1234 1751.31 1176.16 1805.46 1104.82 1805.46H296.901C225.557 1805.46 207.722 1856.19 207.722 1923V2022C210.48 2057 196.497 2147 318.497 2147C318.497 2147 1035 2147 1139.5 2147C1244 2147 1265 2164.5 1265 2298.5C1265 2298.5 1265 2677 1265 2739.5C1265 2802 1252.7 2844 1139.5 2844H147.998C147.998 2844 69.4978 2861 69.4978 2951V3113.5V3636.5C69.4978 3686 76.0314 3780 184.831 3780H1105.5C1139.5 3780 1191.83 3796.4 1191.83 3870V4049.5C1191.83 4049.5 1191.83 4505.5 1191.83 4606C1191.83 4706.5 1105.5 4706.5 1105.5 4706.5H154.998C107.498 4706.5 49.4978 4729.3 49.4978 4836.5V4913" stroke="#041228" stroke-width="2" stroke-dasharray="6.37 7.97"/>
</svg>
