<svg width="130" height="130" viewBox="0 0 130 130" fill="none" xmlns="http://www.w3.org/2000/svg">
<g opacity="0.4" clip-path="url(#clip0_15_704)">
<path d="M62.9355 18.5272L22.5839 45.7433C21.9519 46.1556 21.4073 46.6884 20.9813 47.3111C20.5552 47.9339 20.256 48.6345 20.1008 49.3729C19.9455 50.1113 19.9372 50.8731 20.0764 51.6147C20.2156 52.3563 20.4995 53.0632 20.912 53.6951L58.6134 109.593C59.0447 110.212 59.5938 110.74 60.2292 111.147C60.8647 111.554 61.5741 111.831 62.3169 111.964C63.0597 112.097 63.8213 112.082 64.5584 111.92C65.2954 111.758 65.9933 111.453 66.6124 111.022L106.964 83.8056C107.596 83.3933 108.141 82.8606 108.567 82.2378C108.993 81.615 109.292 80.9144 109.447 80.176C109.602 79.4376 109.611 78.6758 109.471 77.9342C109.332 77.1926 109.048 76.4857 108.636 75.8538L70.9345 19.9562C70.5032 19.3371 69.9541 18.809 69.3187 18.4021C68.6832 17.9952 67.9738 17.7175 67.231 17.5848C66.4882 17.4521 65.7266 17.467 64.9895 17.6287C64.2525 17.7904 63.5546 18.0957 62.9355 18.5272Z" stroke="#7C828E" stroke-width="3" stroke-linecap="round" stroke-linejoin="round"/>
<path d="M28.1855 64.478L78.2081 30.7392" stroke="#7C828E" stroke-width="3" stroke-linecap="round" stroke-linejoin="round"/>
<path d="M75.5566 40.0551L37.8281 65.502L50.5801 84.4085L88.3086 58.9617L75.5566 40.0551Z" stroke="#7C828E" stroke-width="3" stroke-linecap="round" stroke-linejoin="round"/>
<path d="M44.2109 74.9673L81.9273 49.5286" stroke="#7C828E" stroke-width="3" stroke-linecap="round" stroke-linejoin="round"/>
<path d="M88.3043 58.982L100.534 77.1148C100.939 77.7561 101.079 78.53 100.923 79.2723C100.767 80.0146 100.327 80.6669 99.6985 81.0907L66.8175 103.268C66.1889 103.692 65.4196 103.855 64.6729 103.722C63.9262 103.588 63.2608 103.169 62.818 102.554L50.5879 84.4207" stroke="#7C828E" stroke-width="3" stroke-linecap="round" stroke-linejoin="round"/>
<path d="M50.7988 56.7532L77.3871 96.174" stroke="#7C828E" stroke-width="3" stroke-linecap="round" stroke-linejoin="round"/>
<path d="M63.1777 48.4043L89.7661 87.8252" stroke="#7C828E" stroke-width="3" stroke-linecap="round" stroke-linejoin="round"/>
<path d="M57.502 94.6716L82.8517 77.5739" stroke="#7C828E" stroke-width="3" stroke-linecap="round" stroke-linejoin="round"/>
</g>
<defs>
<clipPath id="clip0_15_704">
<rect width="93.3199" height="93.3199" fill="white" transform="translate(0 52.1819) rotate(-33.9986)"/>
</clipPath>
</defs>
</svg>
