<svg width="80" height="80" viewBox="0 0 80 80" fill="none" xmlns="http://www.w3.org/2000/svg">
<path d="M65.591 15.0619C67.0597 15.0619 68.2504 13.8713 68.2504 12.4025C68.2504 10.9338 67.0597 9.74316 65.591 9.74316C64.1223 9.74316 62.9316 10.9338 62.9316 12.4025C62.9316 13.8713 64.1223 15.0619 65.591 15.0619Z" fill="#041228"/>
<path d="M69.1623 51.6971C70.6453 47.9881 71.4412 44.0907 71.4412 40.06C71.4412 36.0241 70.6431 32.1219 69.1564 28.4086C70.6314 28.0253 72.0247 27.438 73.2788 26.6388V23.2644C73.2788 21.4579 72.1507 19.856 70.4719 19.2774C67.2329 18.1638 63.9482 18.1617 60.7091 19.2774C59.0304 19.856 57.9022 21.4579 57.9022 23.2644V26.6388C60.128 28.0571 62.7612 28.8906 65.5905 28.8906C65.6962 28.8906 65.7965 28.8702 65.9015 28.8679C67.4357 32.4182 68.2499 36.1713 68.2499 40.06C68.2499 43.9462 67.4364 47.6969 65.9043 51.2452C65.799 51.2429 65.6965 51.2294 65.5905 51.2294C57.6716 51.2294 51.2299 57.6711 51.2299 65.59C51.2299 65.6953 51.242 65.7975 51.2443 65.9023C44.1269 68.9642 35.9942 68.9642 28.8767 65.9023C28.8791 65.7975 28.8912 65.6953 28.8912 65.59C28.8912 57.6711 22.4495 51.2294 14.5305 51.2294C14.4246 51.2294 14.3221 51.2429 14.2168 51.2452C12.6847 47.6969 11.8712 43.9462 11.8712 40.06C11.8712 36.1713 12.6853 32.4182 14.2195 28.8679C14.3246 28.8702 14.4249 28.8906 14.5305 28.8906C17.3599 28.8906 19.9931 28.0571 22.2188 26.6388V23.2644C22.2188 21.4579 21.0907 19.856 19.4119 19.2774C16.1729 18.1638 12.8882 18.1617 9.64913 19.2774C7.9704 19.856 6.84223 21.4579 6.84223 23.2644V26.6388C8.09635 27.438 9.48965 28.0253 10.9646 28.4086C9.47799 32.1219 8.67992 36.0241 8.67992 40.06C8.67992 44.0907 9.47578 47.9881 10.9588 51.6971C4.76566 53.291 0.169922 58.906 0.169922 65.59C0.169922 69.1601 1.4874 72.4226 3.651 74.9373V74.3244C3.651 71.157 5.64345 68.3418 8.61031 67.3206C9.02362 67.1785 9.44059 67.0593 9.85845 66.9474C9.12817 65.9712 8.67992 64.773 8.67992 63.4625C8.67992 60.2359 11.304 57.6119 14.5305 57.6119C17.7571 57.6119 20.3812 60.2359 20.3812 63.4625C20.3812 64.7728 19.9331 65.971 19.2029 66.9472C19.6206 67.0591 20.0376 67.1783 20.4508 67.3207C23.4176 68.3418 25.4101 71.157 25.4101 74.3244V74.9373C26.8251 73.2927 27.8683 71.3245 28.4277 69.1634C32.1354 70.6451 36.0314 71.4406 40.0605 71.4406C44.0897 71.4406 47.9857 70.6451 51.6934 69.1634C52.2528 71.3245 53.296 73.2927 54.711 74.9373V74.3244C54.711 71.157 56.7035 68.3418 59.6703 67.3207C60.0836 67.1785 60.5006 67.0593 60.9185 66.9475C60.1882 65.9712 59.7399 64.773 59.7399 63.4625C59.7399 60.2359 62.364 57.6119 65.5905 57.6119C68.8171 57.6119 71.4412 60.2359 71.4412 63.4625C71.4412 64.7728 70.9931 65.971 70.2629 66.9472C70.6806 67.0591 71.0976 67.1783 71.5108 67.3207C74.4776 68.3418 76.4701 71.157 76.4701 74.3244V74.9373C78.6337 72.4226 79.9512 69.1601 79.9512 65.59C79.9512 58.906 75.3554 53.291 69.1623 51.6971Z" fill="#041228"/>
<path d="M70.4721 70.337C67.233 69.2233 63.9483 69.2213 60.7092 70.337C59.0305 70.9156 57.9023 72.5174 57.9023 74.3239V77.6984C60.1282 79.1167 62.7613 79.9502 65.5907 79.9502C68.42 79.9502 71.0532 79.1167 73.279 77.6984V74.3239C73.279 72.5174 72.1508 70.9156 70.4721 70.337Z" fill="#041228"/>
<path d="M65.591 66.1215C67.0597 66.1215 68.2504 64.9308 68.2504 63.4621C68.2504 61.9934 67.0597 60.8027 65.591 60.8027C64.1223 60.8027 62.9316 61.9934 62.9316 63.4621C62.9316 64.9308 64.1223 66.1215 65.591 66.1215Z" fill="#041228"/>
<path d="M14.5305 15.0619C15.9992 15.0619 17.1898 13.8713 17.1898 12.4025C17.1898 10.9338 15.9992 9.74316 14.5305 9.74316C13.0617 9.74316 11.8711 10.9338 11.8711 12.4025C11.8711 13.8713 13.0617 15.0619 14.5305 15.0619Z" fill="#041228"/>
<path d="M3.651 23.264C3.651 20.0966 5.64345 17.2814 8.61031 16.2603C9.02362 16.1181 9.44059 15.9989 9.85845 15.887C9.12817 14.9108 8.67992 13.7125 8.67992 12.4021C8.67992 9.1755 11.304 6.55145 14.5305 6.55145C17.7571 6.55145 20.3812 9.1755 20.3812 12.4021C20.3812 13.7124 19.9331 14.9106 19.2029 15.8868C19.6206 15.9987 20.0376 16.1179 20.4508 16.2603C23.4176 17.2814 25.4101 20.0966 25.4101 23.264V23.8769C27.5737 21.3621 28.8912 18.0997 28.8912 14.5296C28.8912 14.4244 28.8775 14.3225 28.8753 14.2178C35.9937 11.1548 44.1274 11.1548 51.2458 14.2178C51.2436 14.3225 51.2299 14.4244 51.2299 14.5296C51.2299 18.0997 52.5474 21.3621 54.711 23.8769V23.2639C54.711 20.0966 56.7035 17.2814 59.6703 16.2602C60.0836 16.118 60.5006 15.9988 60.9185 15.887C60.1882 14.9108 59.7399 13.7125 59.7399 12.4021C59.7399 9.1755 62.364 6.55145 65.5905 6.55145C68.8171 6.55145 71.4412 9.1755 71.4412 12.4021C71.4412 13.7124 70.9931 14.9106 70.2629 15.8868C70.6806 15.9987 71.0976 16.1179 71.5108 16.2603C74.4776 17.2814 76.4701 20.0966 76.4701 23.264V23.8769C78.6337 21.3621 79.9512 18.0997 79.9512 14.5296C79.9512 6.61065 73.5095 0.168945 65.5905 0.168945C58.9052 0.168945 53.2894 4.76649 51.6967 10.9615C44.2432 7.99853 35.8779 7.99853 28.4244 10.9615C26.8317 4.76649 21.2159 0.168945 14.5305 0.168945C6.61163 0.168945 0.169922 6.61065 0.169922 14.5296C0.169922 18.0997 1.4874 21.3621 3.651 23.8769V23.264Z" fill="#041228"/>
<path d="M19.4115 70.337C16.1725 69.2233 12.8877 69.2213 9.64869 70.337C7.96997 70.9156 6.8418 72.5174 6.8418 74.3239V77.6984C9.06761 79.1167 11.7008 79.9502 14.5301 79.9502C17.3595 79.9502 19.9926 79.1167 22.2184 77.6984V74.3239C22.2184 72.5174 21.0903 70.9156 19.4115 70.337Z" fill="#041228"/>
<path d="M14.5305 66.1215C15.9992 66.1215 17.1898 64.9308 17.1898 63.4621C17.1898 61.9934 15.9992 60.8027 14.5305 60.8027C13.0617 60.8027 11.8711 61.9934 11.8711 63.4621C11.8711 64.9308 13.0617 66.1215 14.5305 66.1215Z" fill="#041228"/>
<path d="M26.1462 36.7514C26.1462 36.7514 20.8854 42.0112 20.8804 42.0161C20.2634 42.6331 20.2643 43.6563 20.8804 44.2724C26.168 49.5611 33.1146 52.2049 40.0612 52.2049C47.0078 52.2049 53.9543 49.5611 59.2419 44.2724C59.8591 43.6551 59.8577 42.6319 59.2419 42.0161L53.9761 36.7514C53.4318 36.2081 52.5769 36.1291 51.9452 36.5644L45.7019 40.8516C45.303 41.1248 45.0496 41.5653 45.0132 42.0473L44.5208 48.5991C41.5768 49.1538 38.5455 49.1538 35.6015 48.5991L35.1091 42.0473C35.0727 41.5653 34.8193 41.1248 34.4204 40.8516L28.1771 36.5644C27.5465 36.1291 26.6895 36.2081 26.1462 36.7514Z" fill="#9CA0A6"/>
<path d="M48.7113 33.7412C49.3346 33.1179 49.3346 32.1082 48.7113 31.4849C43.9411 26.7147 36.1811 26.7147 31.4108 31.4849C30.7875 32.1082 30.7875 33.1179 31.4108 33.7412C32.0341 34.3645 33.0439 34.3645 33.6672 33.7412C37.1929 30.2155 42.9291 30.2155 46.4549 33.7411C47.036 34.3221 48.0976 34.3549 48.7113 33.7412Z" fill="#9CA0A6"/>
<path d="M35.1725 35.2452C34.5493 35.8685 34.5493 36.8782 35.1725 37.5015C35.7958 38.1248 36.8056 38.1248 37.4289 37.5015C38.8354 36.095 41.287 36.095 42.6936 37.5015C43.3103 38.1181 44.3339 38.1174 44.9499 37.5015C45.5732 36.8782 45.5732 35.8685 44.9499 35.2452C42.2552 32.5485 37.8672 32.5485 35.1725 35.2452Z" fill="#9CA0A6"/>
</svg>
