<svg width="116" height="68" viewBox="0 0 116 68" fill="none" xmlns="http://www.w3.org/2000/svg">
<path d="M94.1379 41.7675C93.0914 41.8948 92.2429 42.3049 91.4438 43.104C90.8923 43.6555 90.3761 44.3838 89.7538 45.2748C89.0114 46.3567 88.0921 47.686 86.7203 49.0578C85.6455 50.1326 84.4576 51.0801 83.0787 51.9499L82.4706 52.3317L82.6403 53.0247C82.9373 54.2833 82.5696 55.6268 81.6645 56.5319C81.5302 56.6663 81.3888 56.7935 81.2332 56.9067C80.4271 57.4865 79.4513 57.7269 78.4684 57.5784C77.832 57.4794 77.238 57.2107 76.7148 56.7865L75.5622 55.8602L75.1379 57.2744C74.9541 57.8825 74.643 58.4057 74.2116 58.8371C74.0844 58.9644 73.9429 59.1058 73.7874 59.2048C72.6914 60.0038 71.2559 60.1382 70.0185 59.5654L68.5194 58.8724L68.5901 60.4139C68.4629 61.1776 68.1093 61.8706 67.5648 62.415C67.4305 62.5494 67.2891 62.6625 67.1264 62.7827C66.3203 63.3767 65.3445 63.6171 64.3546 63.4616C63.3717 63.3131 62.509 62.7898 61.915 61.9837L60.7695 60.4281L60.1544 62.2595C59.9705 62.811 59.6664 63.2989 59.2705 63.6949C59.1361 63.8293 58.9805 63.9565 58.825 64.0697L56.3148 65.9152C56.1168 66.0566 55.9329 66.1698 55.7137 66.2617C55.049 66.587 54.2924 66.693 53.5712 66.5799C52.5742 66.4314 51.7044 65.9011 51.1175 65.102C50.665 64.4939 50.4246 63.7585 50.4175 62.9737L50.4033 61.022L47.7941 62.9242C46.9951 63.5111 46.0122 63.7444 45.0293 63.5959C44.0465 63.4474 43.1838 62.9242 42.5898 62.1181C42.01 61.3261 41.7696 60.3503 41.9251 59.3603C41.9322 59.2826 41.9534 59.2189 41.9676 59.1624L42.0241 58.9644L42.3423 57.6845L41.0271 57.7269C40.8503 57.734 40.6736 57.7269 40.4897 57.6986C39.5139 57.5431 38.6512 57.0198 38.0785 56.2208C37.4916 55.4218 37.2512 54.446 37.4067 53.456C37.4279 53.3358 37.4704 53.2085 37.5057 53.0742L37.8593 51.8438L36.6006 51.7165C35.448 51.667 34.4086 51.1225 33.751 50.2245C32.853 49.0012 32.7893 47.3678 33.5954 46.0667L33.9631 45.4728L33.5389 44.9212C32.7327 43.8888 32.259 42.708 31.7287 41.2867C31.467 40.5867 31.1488 39.7028 30.7316 38.8896C29.6144 36.6693 26.5526 35.149 25.0889 34.647L32.8671 12.7267C33.5318 12.9671 37.0249 14.155 40.5463 14.6783C42.7171 15.0106 45.4253 15.145 48.2891 15.2793L49.9437 15.3642C50.6155 15.3995 51.2731 15.4349 51.9378 15.4773C56.244 15.7389 61.0241 16.1915 63.3434 18.2845L63.8384 18.7229L64.4394 18.4471C67.084 17.2309 69.5659 16.6582 73.7025 17.5562C76.6936 18.2138 83.0646 19.0128 83.3262 19.0482L83.4252 19.0623L92.2782 18.3835L97.9351 41.0109L94.152 41.7392L94.1379 41.7675Z" fill="white"/>
<path d="M110.155 12.0199L92.2647 16.998L97.9216 42.4538L114.836 41.0396C115.804 31.2179 114.235 21.1911 110.155 12.0199Z" fill="#9CA0A6"/>
<path d="M23.9239 35.6725L33.0314 11.2349L11.3515 1.23638C4.94512 9.89137 1.28231 19.9323 0.363068 30.1853L23.9309 35.6654L23.9239 35.6725Z" fill="#041228"/>
<path d="M109.942 12.0482L92.2647 16.998L97.9216 42.4538L114.892 41.0396" stroke="#041228" stroke-width="2" stroke-miterlimit="10"/>
<path d="M11.6545 1.44124L33.0303 11.2347L23.9228 35.6723L1.04786 30.4326" stroke="#041228" stroke-width="2" stroke-miterlimit="10"/>
<path d="M82.4144 52.3607C90.3835 47.6584 89.7259 42.3056 94.1382 41.7682L97.9212 41.0399" stroke="#041228" stroke-width="2" stroke-miterlimit="10"/>
<path d="M47.4969 53.9584C49.1445 52.7492 49.5051 50.4087 48.303 48.754C47.101 47.0994 44.7534 46.7459 43.0987 47.9479L38.8844 51.0309C37.2368 52.2401 36.8762 54.5806 38.0783 56.2352C39.2874 57.8828 41.6279 58.2434 43.2826 57.0413" stroke="#041228" stroke-width="2" stroke-miterlimit="10"/>
<path d="M38.9623 51.0521L39.634 50.5642C41.2816 49.355 41.6422 47.0145 40.4401 45.3599C39.231 43.7123 36.8904 43.3517 35.2358 44.5538L34.5641 45.0417C32.9165 46.2508 32.5559 48.5913 33.758 50.246C34.9671 51.8935 37.3076 52.2542 38.9623 51.0521Z" stroke="#041228" stroke-width="2" stroke-miterlimit="10"/>
<path d="M33.7368 45.2046C32.2236 43.451 31.8276 41.0892 30.7457 38.9184C29.3315 36.09 25.0889 34.6758 25.0889 34.6758" stroke="#041228" stroke-width="2" stroke-miterlimit="10"/>
<path d="M63.7968 18.7655C61.633 16.1775 55.9974 15.7462 51.9457 15.4987C47.8798 15.2512 43.6654 15.1664 40.5542 14.6997C36.6297 14.1128 32.875 12.748 32.875 12.748" stroke="#041228" stroke-width="2" stroke-miterlimit="10"/>
<path d="M74.5521 54.0997C75.7613 55.7472 75.4219 58.0241 73.7672 59.2262C72.1126 60.4283 69.7792 60.0747 68.5629 58.4201L67.778 57.3665" stroke="#041228" stroke-width="2" stroke-miterlimit="10"/>
<path d="M62.4741 50.1538L67.9259 57.5997C69.135 59.2472 68.7744 61.5878 67.1198 62.804C65.4652 64.0202 63.1317 63.6525 61.9155 61.9979L59.8083 59.1129" stroke="#041228" stroke-width="2" stroke-miterlimit="10"/>
<path d="M68.8311 46.1875L76.0295 56.1152C77.2386 57.7628 79.5791 58.1234 81.2338 56.9213C82.8813 55.7122 83.242 53.3717 82.0399 51.717L81.7712 51.3493L81.5449 51.0524L65.9673 29.7755L65.6562 29.3512C64.8006 28.1704 63.1672 27.8946 61.9793 28.729C59.1791 30.6806 54.6041 33.8697 54.2859 34.0889C52.7727 35.1495 50.6655 34.7677 49.612 33.2615L49.2018 32.6676C49.1241 32.5474 49.0463 32.4272 48.9897 32.2999C48.1977 30.8291 48.6432 28.9694 50.0221 28.0007L61.0176 20.3568C61.5974 19.9467 62.2055 19.5932 62.8136 19.282C66.3138 17.4931 68.824 16.5385 73.6819 17.6062C76.779 18.285 83.4187 19.1123 83.4187 19.1123L92.2717 18.4335" stroke="#041228" stroke-width="2" stroke-miterlimit="10"/>
<path d="M47.8096 62.9528L53.1412 59.0495C54.7888 57.8404 55.1494 55.4999 53.9473 53.8452C52.7381 52.1977 50.3976 51.8371 48.743 53.0391L43.4114 56.9424C41.7638 58.1515 41.4032 60.492 42.6053 62.1467C43.8074 63.8013 46.155 64.1549 47.8096 62.9528Z" stroke="#041228" stroke-width="2" stroke-miterlimit="10"/>
<path d="M53.8056 58.5687L54.442 58.102C55.2694 57.5009 56.2805 57.2817 57.221 57.4302C57.9281 57.5434 58.5998 57.8474 59.1514 58.3424C59.1584 58.3495 59.1797 58.3707 59.1867 58.3778C59.3564 58.5333 59.512 58.703 59.6463 58.9081C59.7807 59.0849 59.8938 59.2828 59.9928 59.4808C60.7636 61.0577 60.3181 63.0305 58.8473 64.1053L56.3442 65.9438C56.1462 66.0852 55.9623 66.1984 55.7502 66.2832C55.0572 66.6226 54.3077 66.7216 53.5864 66.6085C52.6318 66.46 51.755 65.965 51.1399 65.1377C50.0721 63.674 50.2418 61.6658 51.4439 60.393" stroke="#041228" stroke-width="2" stroke-miterlimit="10"/>
</svg>
