<svg width="90" height="79" viewBox="0 0 90 79" fill="none" xmlns="http://www.w3.org/2000/svg">
<path d="M4.21259 27.4434C2.33359 27.4434 0.808594 28.9684 0.808594 30.8474C0.808594 32.7264 2.33359 34.2514 4.21259 34.2514V78.5034H21.2326V71.6954H14.4246V64.8874H21.2326V58.0794H14.4246V51.2714H21.2326V44.4634H14.4246V37.6554H21.2326V30.8474V27.4434H4.21259ZM68.8886 27.4434V34.2514V37.6554H75.6966V44.4634H68.8886V51.2714H75.6966V58.0794H68.8886V64.8874H75.6966V71.6954H68.8886V78.5034H85.9086V34.2514C87.7876 34.2514 89.3126 32.7264 89.3126 30.8474C89.3126 28.9684 87.7876 27.4434 85.9086 27.4434H68.8886Z" fill="#9CA0A6"/>
<path d="M45.2003 0.211547C44.537 0.185801 43.8807 0.354498 43.3121 0.696883L26.2921 10.9089C25.6273 11.2799 25.1061 11.8631 24.8117 12.5651C24.5173 13.2672 24.4667 14.0477 24.6681 14.7819C24.8695 15.5161 25.3111 16.1617 25.9224 16.6154C26.5338 17.0691 27.2796 17.3047 28.0406 17.2847V78.5035H34.8486V68.2915C34.8486 66.4125 36.3736 64.8876 38.2526 64.8876H51.8686C53.7476 64.8876 55.2726 66.4125 55.2726 68.2915V78.5035H62.0806V17.2847C62.8417 17.3047 63.5875 17.0691 64.1988 16.6154C64.8102 16.1617 65.2518 15.5161 65.4532 14.7819C65.6545 14.0477 65.604 13.2672 65.3096 12.5651C65.0152 11.8631 64.494 11.2799 63.8292 10.9089L46.8092 0.696883C46.3219 0.403195 45.7687 0.236332 45.2003 0.211547ZM45.0606 13.8275C48.8221 13.8275 51.8686 16.8741 51.8686 20.6355C51.8686 24.397 48.8221 27.4435 45.0606 27.4435C41.2992 27.4435 38.2526 24.397 38.2526 20.6355C38.2526 16.8741 41.2992 13.8275 45.0606 13.8275ZM34.8486 37.6555H41.6566V44.4635H34.8486V37.6555ZM48.4646 37.6555H55.2726V44.4635H48.4646V37.6555ZM34.8486 51.2715H41.6566V58.0795H34.8486V51.2715ZM48.4646 51.2715H55.2726V58.0795H48.4646V51.2715Z" fill="#041228"/>
</svg>
