<svg width="40" height="40" viewBox="0 0 40 40" fill="none" xmlns="http://www.w3.org/2000/svg">
<rect width="40" height="40" rx="20" fill="white" fill-opacity="0.18"/>
<g clip-path="url(#clip0_1_309)">
<path d="M20 13C18.6933 13 17.7211 13.0156 17.0833 13.0467C16.4456 13.0778 15.8933 13.1867 15.4267 13.3733C14.96 13.56 14.5478 13.8322 14.19 14.19C13.8322 14.5478 13.56 14.96 13.3733 15.4267C13.1867 15.8933 13.0778 16.4456 13.0467 17.0833C13.0156 17.7211 13 18.6933 13 20C13 21.3067 13.0156 22.2789 13.0467 22.9167C13.0778 23.5544 13.1867 24.1067 13.3733 24.5733C13.56 25.04 13.8322 25.4522 14.19 25.81C14.5478 26.1678 14.96 26.44 15.4267 26.6267C15.8933 26.8133 16.4456 26.9222 17.0833 26.9533C17.7211 26.9844 18.6933 27 20 27C21.3067 27 22.2789 26.9844 22.9167 26.9533C23.5544 26.9222 24.1067 26.8133 24.5733 26.6267C25.04 26.44 25.4522 26.1678 25.81 25.81C26.1678 25.4522 26.44 25.04 26.6267 24.5733C26.8133 24.1067 26.9222 23.5544 26.9533 22.9167C26.9844 22.2789 27 21.3067 27 20C27 18.6933 26.9844 17.7211 26.9533 17.0833C26.9222 16.4456 26.8133 15.8933 26.6267 15.4267C26.44 14.96 26.1678 14.5478 25.81 14.19C25.4522 13.8322 25.04 13.56 24.5733 13.3733C24.1067 13.1867 23.5544 13.0778 22.9167 13.0467C22.2789 13.0156 21.3067 13 20 13ZM19.3933 14.26H20C21.3067 14.26 22.2556 14.2756 22.8467 14.3067C23.3444 14.3378 23.7567 14.4156 24.0833 14.54C24.41 14.6644 24.69 14.8433 24.9233 15.0767C25.1567 15.31 25.3356 15.59 25.46 15.9167C25.5844 16.2433 25.6622 16.6556 25.6933 17.1533C25.7244 17.7444 25.74 18.6933 25.74 20C25.74 21.3067 25.7244 22.2556 25.6933 22.8467C25.6622 23.3444 25.5844 23.7567 25.46 24.0833C25.3356 24.41 25.1567 24.69 24.9233 24.9233C24.69 25.1567 24.41 25.3356 24.0833 25.46C23.7567 25.5844 23.3444 25.6622 22.8467 25.6933C22.2244 25.7244 21.2756 25.74 20 25.74C18.7244 25.74 17.7756 25.7244 17.1533 25.6933C16.6556 25.6622 16.2433 25.5844 15.9167 25.46C15.59 25.3356 15.31 25.1567 15.0767 24.9233C14.8433 24.69 14.6644 24.41 14.54 24.0833C14.4156 23.7567 14.3378 23.3444 14.3067 22.8467C14.2756 22.2244 14.26 21.2678 14.26 19.9767C14.26 18.6856 14.2756 17.7444 14.3067 17.1533C14.3378 16.6556 14.4156 16.2433 14.54 15.9167C14.6644 15.59 14.8433 15.31 15.0767 15.0767C15.31 14.8433 15.59 14.6644 15.9167 14.54C16.2433 14.4156 16.6711 14.3378 17.2 14.3067C17.7289 14.2756 18.46 14.26 19.3933 14.26ZM23.7333 15.4267C23.5156 15.4267 23.3211 15.5044 23.15 15.66C22.9789 15.8156 22.8933 16.01 22.8933 16.2433C22.8933 16.4767 22.9789 16.6789 23.15 16.85C23.3211 17.0211 23.5233 17.1067 23.7567 17.1067C23.99 17.1067 24.1844 17.0211 24.34 16.85C24.4956 16.6789 24.5733 16.4767 24.5733 16.2433C24.5733 16.01 24.4956 15.8156 24.34 15.66C24.1844 15.5044 23.9822 15.4267 23.7333 15.4267ZM20 16.4067C19.3467 16.4067 18.74 16.5622 18.18 16.8733C17.62 17.1844 17.1767 17.62 16.85 18.18C16.5233 18.74 16.36 19.3467 16.36 20C16.36 20.6533 16.5233 21.26 16.85 21.82C17.1767 22.38 17.62 22.8156 18.18 23.1267C18.74 23.4378 19.3467 23.5933 20 23.5933C20.6533 23.5933 21.2522 23.43 21.7967 23.1033C22.3411 22.7767 22.7689 22.3411 23.08 21.7967C23.3911 21.2522 23.5467 20.6533 23.5467 20C23.5467 19.3467 23.3911 18.7478 23.08 18.2033C22.7689 17.6589 22.3411 17.2233 21.7967 16.8967C21.2522 16.57 20.6533 16.4067 20 16.4067ZM20 17.6667C20.4044 17.6667 20.7933 17.7678 21.1667 17.97C21.54 18.1722 21.8278 18.46 22.03 18.8333C22.2322 19.2067 22.3333 19.5956 22.3333 20C22.3333 20.4044 22.2322 20.7933 22.03 21.1667C21.8278 21.54 21.54 21.8278 21.1667 22.03C20.7933 22.2322 20.4044 22.3333 20 22.3333C19.3467 22.3333 18.7944 22.1078 18.3433 21.6567C17.8922 21.2056 17.6667 20.6533 17.6667 20C17.6667 19.3467 17.8922 18.7944 18.3433 18.3433C18.7944 17.8922 19.3467 17.6667 20 17.6667Z" fill="white"/>
</g>
<defs>
<clipPath id="clip0_1_309">
<rect width="14" height="40" fill="white" transform="matrix(1 0 0 -1 13 40)"/>
</clipPath>
</defs>
</svg>
