<svg width="137" height="139" viewBox="0 0 137 139" fill="none" xmlns="http://www.w3.org/2000/svg">
<g opacity="0.4" clip-path="url(#clip0_15_714)">
<path d="M80.1909 117.003C79.3088 118.666 77.803 119.911 76.0038 120.465C74.2047 121.019 72.2592 120.837 70.5942 119.958L28.5597 97.1739C26.9148 96.2584 25.7002 94.7277 25.1825 92.9177C24.6648 91.1077 24.8863 89.1663 25.7983 87.5194L59.9752 24.4677C60.8546 22.8093 62.3544 21.5662 64.1471 21.0096C65.9397 20.453 67.8798 20.6281 69.5439 21.4966L111.578 44.2812C113.223 45.1967 114.438 46.7274 114.956 48.5374C115.473 50.3474 115.252 52.2888 114.34 53.9357L80.1909 117.003Z" stroke="#7C828E" stroke-width="3" stroke-linecap="round" stroke-linejoin="round"/>
<path d="M51.334 26.364L63.0336 32.7057" stroke="#7C828E" stroke-width="3" stroke-linecap="round" stroke-linejoin="round"/>
<path d="M41.8242 43.9065L53.5238 50.2482" stroke="#7C828E" stroke-width="3" stroke-linecap="round" stroke-linejoin="round"/>
<path d="M32.3164 61.4487L44.016 67.7904" stroke="#7C828E" stroke-width="3" stroke-linecap="round" stroke-linejoin="round"/>
<path d="M22.8066 78.9912L34.5062 85.3329" stroke="#7C828E" stroke-width="3" stroke-linecap="round" stroke-linejoin="round"/>
<path d="M63.2369 32.3275C63.3259 32.3531 63.4047 32.4058 63.4624 32.4783C63.5201 32.5507 63.5538 32.6393 63.5588 32.7318C63.5639 32.8243 63.5401 32.916 63.4907 32.9943C63.4413 33.0727 63.3687 33.1337 63.2831 33.1689C63.1974 33.2042 63.103 33.2119 63.0127 33.191C62.9225 33.1702 62.841 33.1217 62.7795 33.0525C62.7181 32.9832 62.6797 32.8966 62.6696 32.8045C62.6596 32.7124 62.6785 32.6195 62.7236 32.5387C62.7649 32.4436 62.8416 32.3684 62.9375 32.329C63.0333 32.2896 63.1407 32.289 63.2369 32.3275ZM64.7559 29.5252C64.1306 29.1718 63.4143 29.0126 62.6982 29.0678C61.9821 29.123 61.2986 29.39 60.7348 29.835C60.171 30.2799 59.7524 30.8826 59.5323 31.5663C59.3123 32.25 59.3006 32.9837 59.499 33.674C59.6973 34.3643 60.0966 34.9799 60.6461 35.4425C61.1955 35.9051 61.8702 36.1936 62.5842 36.2714C63.2982 36.3492 64.0192 36.2128 64.6554 35.8794C65.2915 35.546 65.8141 35.0308 66.1564 34.3994C66.3867 33.9879 66.5331 33.5349 66.5873 33.0665C66.6415 32.5981 66.6023 32.1236 66.4721 31.6704C66.3419 31.2172 66.1232 30.7943 65.8286 30.4261C65.5341 30.0579 65.1695 29.7517 64.7559 29.5252Z" fill="#7C828E"/>
<path d="M53.7291 49.8697C53.8181 49.8954 53.8969 49.9481 53.9546 50.0205C54.0123 50.093 54.046 50.1816 54.051 50.274C54.0561 50.3665 54.0323 50.4583 53.9829 50.5366C53.9335 50.6149 53.8609 50.6759 53.7753 50.7112C53.6896 50.7464 53.5951 50.7541 53.5049 50.7333C53.4147 50.7124 53.3332 50.664 53.2717 50.5947C53.2102 50.5255 53.1718 50.4388 53.1618 50.3467C53.1518 50.2547 53.1707 50.1618 53.2158 50.0809C53.2571 49.9859 53.3338 49.9107 53.4296 49.8712C53.5255 49.8318 53.6329 49.8312 53.7291 49.8697ZM55.2481 47.0674C54.6228 46.7141 53.9065 46.5548 53.1904 46.61C52.4743 46.6652 51.7908 46.9323 51.227 47.3772C50.6632 47.8222 50.2446 48.4249 50.0245 49.1086C49.8044 49.7922 49.7928 50.5259 49.9912 51.2162C50.1895 51.9065 50.5888 52.5222 51.1383 52.9847C51.6877 53.4473 52.3624 53.7359 53.0764 53.8137C53.7904 53.8915 54.5114 53.755 55.1476 53.4216C55.7837 53.0882 56.3063 52.573 56.6486 51.9417C56.8789 51.5302 57.0253 51.0771 57.0795 50.6087C57.1337 50.1403 57.0945 49.6658 56.9643 49.2126C56.8341 48.7594 56.6154 48.3365 56.3208 47.9683C56.0263 47.6001 55.6617 47.2939 55.2481 47.0674Z" fill="#7C828E"/>
<path d="M44.2194 67.4122C44.3083 67.4379 44.3871 67.4906 44.4448 67.563C44.5025 67.6355 44.5362 67.7241 44.5413 67.8165C44.5463 67.909 44.5225 68.0007 44.4731 68.0791C44.4237 68.1574 44.3511 68.2184 44.2655 68.2536C44.1799 68.2889 44.0854 68.2966 43.9952 68.2757C43.9049 68.2549 43.8234 68.2065 43.762 68.1372C43.7005 68.0679 43.6621 67.9813 43.6521 67.8892C43.642 67.7972 43.6609 67.7043 43.7061 67.6234C43.7473 67.5284 43.824 67.4531 43.9199 67.4137C44.0157 67.3743 44.1231 67.3737 44.2194 67.4122ZM45.7383 64.6099C45.113 64.2565 44.3967 64.0973 43.6806 64.1525C42.9645 64.2077 42.281 64.4747 41.7172 64.9197C41.1534 65.3647 40.7348 65.9674 40.5148 66.651C40.2947 67.3347 40.2831 68.0684 40.4814 68.7587C40.6798 69.449 41.0791 70.0646 41.6285 70.5272C42.1779 70.9898 42.8526 71.2783 43.5666 71.3561C44.2806 71.4339 45.0016 71.2975 45.6378 70.9641C46.274 70.6307 46.7965 70.1155 47.1389 69.4841C47.3691 69.0726 47.5155 68.6196 47.5697 68.1512C47.6239 67.6828 47.5848 67.2083 47.4545 66.7551C47.3243 66.3019 47.1056 65.879 46.8111 65.5108C46.5165 65.1426 46.1519 64.8364 45.7383 64.6099Z" fill="#7C828E"/>
<path d="M34.7116 84.9547C34.8005 84.9803 34.8793 85.033 34.937 85.1055C34.9947 85.1779 35.0284 85.2665 35.0335 85.359C35.0385 85.4515 35.0147 85.5432 34.9653 85.6215C34.9159 85.6999 34.8433 85.7609 34.7577 85.7961C34.672 85.8314 34.5776 85.8391 34.4873 85.8182C34.3971 85.7974 34.3156 85.7489 34.2541 85.6797C34.1927 85.6104 34.1543 85.5238 34.1442 85.4317C34.1342 85.3396 34.1531 85.2467 34.1982 85.1659C34.2395 85.0708 34.3162 84.9956 34.4121 84.9562C34.5079 84.9168 34.6153 84.9162 34.7116 84.9547ZM36.2305 82.1524C35.6052 81.799 34.8889 81.6398 34.1728 81.695C33.4567 81.7502 32.7732 82.0172 32.2094 82.4622C31.6456 82.9071 31.227 83.5098 31.0069 84.1935C30.7869 84.8772 30.7753 85.6109 30.9736 86.3012C31.1719 86.9915 31.5713 87.6071 32.1207 88.0697C32.6701 88.5323 33.3448 88.8208 34.0588 88.8986C34.7728 88.9764 35.4938 88.84 36.13 88.5066C36.7661 88.1732 37.2887 87.658 37.6311 87.0266C37.8613 86.6151 38.0077 86.1621 38.0619 85.6937C38.1161 85.2253 38.077 84.7508 37.9467 84.2976C37.8165 83.8444 37.5978 83.4215 37.3032 83.0533C37.0087 82.6851 36.6441 82.3789 36.2305 82.1524Z" fill="#7C828E"/>
<path d="M102.489 54.0927L72.9531 38.0828L64.5001 53.6776L94.0363 69.6875L102.489 54.0927Z" stroke="#7C828E" stroke-width="3" stroke-linecap="round" stroke-linejoin="round"/>
<path d="M88.1573 80.5324L58.6211 64.5225" stroke="#7C828E" stroke-width="3" stroke-linecap="round" stroke-linejoin="round"/>
<path d="M83.4718 89.1777L53.9355 73.1677" stroke="#7C828E" stroke-width="3" stroke-linecap="round" stroke-linejoin="round"/>
<path d="M78.7862 97.8227L49.25 81.8127" stroke="#7C828E" stroke-width="3" stroke-linecap="round" stroke-linejoin="round"/>
<path d="M74.0987 106.468L44.5625 90.4578" stroke="#7C828E" stroke-width="3" stroke-linecap="round" stroke-linejoin="round"/>
</g>
<defs>
<clipPath id="clip0_15_714">
<rect width="102" height="102" fill="white" transform="translate(46.6074) rotate(28.4597)"/>
</clipPath>
</defs>
</svg>
