<svg width="103" height="86" viewBox="0 0 103 86" fill="none" xmlns="http://www.w3.org/2000/svg">
<g clip-path="url(#clip0_631_1564)">
<path d="M51.06 0C50.7196 0 50.3792 0.0687966 50.0728 0.137593L6.36548 13.7593C4.66348 14.0001 3.404 15.4792 3.404 17.1992V52.5606C1.3616 53.7646 0 55.9317 0 58.4771C0 62.261 6.808 72.2365 6.808 72.2365C6.808 72.2365 13.616 62.261 13.616 58.4771C13.616 55.9317 12.2544 53.7302 10.212 52.5606V21.8429L50.0728 34.2263C50.7196 34.4327 51.4344 34.4327 52.0812 34.2263L96.3332 20.467C98.1373 19.9166 99.1245 17.9903 98.5798 16.1672C98.2394 15.1009 97.4225 14.2409 96.3332 13.8969L52.0472 0.137593C51.7408 0.0687966 51.4004 0 51.06 0ZM23.828 33.2976V55.0373C23.828 55.0373 35.2995 55.0373 47.7241 63.0521C47.7241 62.6737 47.656 62.2953 47.656 61.917C47.656 53.3518 51.094 45.6122 56.6426 40.0052L54.0896 40.7964C53.1024 41.106 52.0812 41.2436 51.094 41.2436C50.1069 41.2436 49.0516 41.106 48.0985 40.7964L23.862 33.2632L23.828 33.2976ZM78.292 37.8381C65.1185 37.8381 54.464 48.6048 54.464 61.917C54.464 75.2291 65.1185 85.9958 78.292 85.9958C91.4655 85.9958 102.12 75.2291 102.12 61.917C102.12 48.6048 91.4655 37.8381 78.292 37.8381ZM74.888 44.7178H81.696V49.6024C85.4064 50.5999 87.7892 53.2142 87.8572 56.6884H82.2406C82.1045 54.9685 80.5046 53.7646 78.3601 53.7646C76.2156 53.7646 74.8199 54.7965 74.8199 56.4132C74.8199 57.7548 75.8752 58.5115 78.3941 59.0275L81.4918 59.6467C86.2233 60.5754 88.3678 62.7425 88.3678 66.5951C88.3678 70.4478 85.917 73.3716 81.73 74.3004V79.1161H74.922V74.3348C70.8372 73.4404 68.3523 70.8949 68.2842 67.1455H74.1051C74.2412 68.8998 76.0113 70.035 78.5303 70.035C80.811 70.035 82.3768 68.9342 82.3768 67.3175C82.3768 65.976 81.3216 65.2536 78.5984 64.7032L75.4326 64.0497C71.0415 63.2241 68.7948 60.7818 68.7948 56.9636C68.7948 53.1454 71.1436 50.5311 74.9561 49.568V44.7178H74.888Z" fill="#9CA0A6"/>
<path d="M51.06 0C50.7196 0 50.3792 0.0687966 50.0728 0.137593L6.36548 13.7593C4.66348 14.0001 3.404 15.4792 3.404 17.1992V52.5606C1.3616 53.7646 0 55.9317 0 58.4771C0 62.2609 6.808 72.2365 6.808 72.2365C6.808 72.2365 13.616 62.2609 13.616 58.4771C13.616 55.9317 12.2544 53.7302 10.212 52.5606V21.8429L50.0728 34.2263C50.7196 34.4327 51.4344 34.4327 52.0812 34.2263L96.3332 20.467C98.1373 19.9166 99.1245 17.9903 98.5798 16.1672C98.2394 15.1009 97.4225 14.2409 96.3332 13.8969L52.0472 0.137593C51.7408 0.0687966 51.4004 0 51.06 0ZM23.828 33.2976V55.0373C23.828 55.0373 35.2995 55.0373 47.7241 63.0521C47.7241 62.6737 47.656 62.2953 47.656 61.917C47.656 53.3518 51.094 45.6122 56.6426 40.0052L54.0896 40.7964C53.1024 41.106 52.0812 41.2436 51.094 41.2436C50.1069 41.2436 49.0516 41.106 48.0985 40.7964L23.862 33.2632L23.828 33.2976Z" fill="#041228"/>
</g>
<defs>
<clipPath id="clip0_631_1564">
<rect width="102.12" height="85.9958" fill="white"/>
</clipPath>
</defs>
</svg>
