<svg width="40" height="40" viewBox="0 0 40 40" fill="none" xmlns="http://www.w3.org/2000/svg">
<rect width="40" height="40" rx="20" fill="white" fill-opacity="0.18"/>
<path d="M20 14.6666C20.57 14.6666 21.1547 14.6813 21.7214 14.7053L22.3907 14.7373L23.0314 14.7753L23.6314 14.816L24.1794 14.8586C24.7742 14.9039 25.3339 15.1576 25.76 15.575C26.1861 15.9925 26.4512 16.5469 26.5087 17.1406L26.5354 17.424L26.5854 18.0306C26.632 18.6593 26.6667 19.3446 26.6667 20C26.6667 20.6553 26.632 21.3406 26.5854 21.9693L26.5354 22.576L26.5087 22.8593C26.4512 23.4531 26.186 24.0076 25.7598 24.4251C25.3335 24.8426 24.7736 25.0962 24.1787 25.1413L23.632 25.1833L23.032 25.2246L22.3907 25.2626L21.7214 25.2946C21.1479 25.3195 20.574 25.3324 20 25.3333C19.4261 25.3324 18.8522 25.3195 18.2787 25.2946L17.6094 25.2626L16.9687 25.2246L16.3687 25.1833L15.8207 25.1413C15.2259 25.096 14.6662 24.8423 14.2401 24.4249C13.814 24.0074 13.5488 23.453 13.4914 22.8593L13.4647 22.576L13.4147 21.9693C13.3639 21.314 13.3368 20.6572 13.3334 20C13.3334 19.3446 13.368 18.6593 13.4147 18.0306L13.4647 17.424L13.4914 17.1406C13.5488 16.547 13.8138 15.9927 14.2398 15.5752C14.6658 15.1578 15.2254 14.904 15.82 14.8586L16.3674 14.816L16.9674 14.7753L17.6087 14.7373L18.278 14.7053C18.8517 14.6804 19.4258 14.6676 20 14.6666ZM20 16C19.45 16 18.884 16.0146 18.3334 16.0373L17.6814 16.0686L17.0554 16.1053L16.4674 16.1453L15.9287 16.1873C15.6455 16.2071 15.3785 16.3267 15.1751 16.5248C14.9718 16.7229 14.8453 16.9867 14.818 17.2693C14.74 18.0753 14.6667 19.0786 14.6667 20C14.6667 20.9213 14.74 21.9246 14.818 22.7306C14.8747 23.312 15.336 23.764 15.9287 23.8126L16.4674 23.854L17.0554 23.894L17.6814 23.9313L18.3334 23.9626C18.884 23.9853 19.45 24 20 24C20.55 24 21.116 23.9853 21.6667 23.9626L22.3187 23.9313L22.9447 23.8946L23.5327 23.8546L24.0714 23.8126C24.3546 23.7928 24.6216 23.6732 24.8249 23.4751C25.0283 23.277 25.1548 23.0132 25.182 22.7306C25.26 21.9246 25.3334 20.9213 25.3334 20C25.3334 19.0786 25.26 18.0753 25.182 17.2693C25.1548 16.9867 25.0283 16.7229 24.8249 16.5248C24.6216 16.3267 24.3546 16.2071 24.0714 16.1873L23.5327 16.146L22.9447 16.106L22.3187 16.0686L21.6667 16.0373C21.1115 16.0135 20.5558 16.001 20 16ZM18.6667 18.3833C18.6667 18.3181 18.6825 18.254 18.713 18.1963C18.7434 18.1387 18.7874 18.0894 18.8412 18.0526C18.895 18.0159 18.957 17.9929 19.0217 17.9856C19.0865 17.9782 19.152 17.9868 19.2127 18.0106L19.2667 18.0373L22.0667 19.6533C22.1225 19.6855 22.1696 19.7306 22.2042 19.7849C22.2388 19.8392 22.2597 19.9011 22.2653 19.9652C22.2709 20.0293 22.2609 20.0939 22.2362 20.1533C22.2114 20.2127 22.1728 20.2653 22.1234 20.3066L22.0667 20.3466L19.2667 21.9633C19.2103 21.996 19.1467 22.0144 19.0816 22.0168C19.0164 22.0193 18.9516 22.0059 18.8929 21.9776C18.8341 21.9493 18.7832 21.9072 18.7444 21.8547C18.7057 21.8022 18.6804 21.7411 18.6707 21.6766L18.6667 21.6166V18.3833Z" fill="white"/>
</svg>
